<svg width="184" height="170" viewBox="0 0 184 170" fill="none" xmlns="http://www.w3.org/2000/svg">
<ellipse cx="62" cy="5" rx="7" ry="5" fill="#5A4AC7" fill-opacity="0.8"/>
<line x1="62.5" y1="8" x2="62.5" y2="26" stroke="#ADACAC"/>
<path d="M82 46C82 34.9543 73.2696 26 62.5 26" stroke="#ADACAC"/>
<ellipse cx="62.5" cy="41" rx="11.5" ry="11" fill="#5A4AC7" fill-opacity="0.8"/>
<ellipse cx="62" cy="64" rx="7" ry="5" fill="#5A4AC7" fill-opacity="0.8"/>
<g clip-path="url(#clip0_90_24)">
<path d="M59 50C61.208 50 63 48.7307 63 47.1667V44.3333H59C56.792 44.3333 55 45.6027 55 47.1667C55 48.7307 56.792 50 59 50Z" fill="#0ACF83"/>
<path d="M55 41.5C55 39.936 56.792 38.6667 59 38.6667H63V44.3333H59C56.792 44.3333 55 43.064 55 41.5Z" fill="#A259FF"/>
<path d="M55 35.8333C55 34.2693 56.792 33 59 33H63V38.6667H59C56.792 38.6667 55 37.3973 55 35.8333Z" fill="#F24E1E"/>
<path d="M63 33H67C69.208 33 71 34.2693 71 35.8333C71 37.3973 69.208 38.6667 67 38.6667H63V33Z" fill="#FF7262"/>
<path d="M71 41.5C71 43.064 69.208 44.3333 67 44.3333C64.792 44.3333 63 43.064 63 41.5C63 39.936 64.792 38.6667 67 38.6667C69.208 38.6667 71 39.936 71 41.5Z" fill="#1ABCFE"/>
</g>
<line x1="61.5" y1="66" x2="61.5" y2="86" stroke="#ADACAC"/>
<path d="M61 86C49.9543 86 41 94.7304 41 105.5" stroke="#ADACAC"/>
<ellipse cx="62.5" cy="106" rx="11.5" ry="10" fill="#5A4AC7" fill-opacity="0.8"/>
<path d="M55.4706 101.626C55.4706 100.797 55.7959 100.003 56.3751 99.4165C56.9543 98.8305 57.7398 98.5013 58.5588 98.5013H65.9706C66.7896 98.5013 67.5751 98.8305 68.1543 99.4165C68.7334 100.003 69.0588 100.797 69.0588 101.626V104.051C68.8982 104.164 68.7451 104.29 68.6018 104.435L67.8235 105.223V102.25H56.7059V109.125C56.7059 109.622 56.9011 110.099 57.2486 110.451C57.5961 110.802 58.0674 111 58.5588 111H62.4413C62.2857 111.313 62.1634 111.644 62.0782 111.988L62.0127 112.25H58.5588C57.7398 112.25 56.9543 111.921 56.3751 111.335C55.7959 110.749 55.4706 109.954 55.4706 109.125V101.626ZM58.5576 99.75C58.1742 99.7498 57.8003 99.8699 57.4872 100.094C57.1742 100.318 56.9374 100.634 56.8096 101H67.7173C67.5895 100.634 67.3528 100.318 67.0397 100.094C66.7267 99.8699 66.3527 99.7498 65.9693 99.75H58.5576ZM66.5734 106.488L63.3641 109.736C63.2564 109.712 63.1573 109.658 63.077 109.581C62.9967 109.505 62.9381 109.408 62.9075 109.3C62.8768 109.193 62.8752 109.079 62.9027 108.971C62.9302 108.863 62.9859 108.764 63.0639 108.685L65.0972 106.628L63.0627 104.569C63.0054 104.511 62.9599 104.442 62.9289 104.366C62.8979 104.29 62.8819 104.209 62.882 104.126C62.8821 104.044 62.8981 103.963 62.9292 103.887C62.9603 103.811 63.0059 103.742 63.0633 103.684C63.1207 103.626 63.1889 103.58 63.2639 103.549C63.3389 103.518 63.4193 103.501 63.5004 103.502C63.5816 103.502 63.6619 103.518 63.7369 103.549C63.8118 103.581 63.8799 103.627 63.9373 103.685L66.4079 106.185C66.4904 106.269 66.5478 106.375 66.5734 106.49V106.488ZM61.4655 104.569C61.5245 104.511 61.5715 104.442 61.6039 104.366C61.6362 104.29 61.6533 104.208 61.654 104.125C61.6547 104.042 61.6391 103.959 61.608 103.883C61.577 103.806 61.5311 103.736 61.4731 103.677C61.4151 103.619 61.3462 103.572 61.2703 103.541C61.1944 103.509 61.113 103.493 61.031 103.494C60.949 103.495 60.868 103.512 60.7926 103.545C60.7172 103.578 60.6491 103.625 60.5921 103.685L58.1215 106.185C58.0057 106.302 57.9407 106.461 57.9407 106.627C57.9407 106.793 58.0057 106.952 58.1215 107.069L60.5921 109.569C60.7086 109.683 60.8646 109.746 61.0266 109.744C61.1885 109.743 61.3434 109.677 61.4579 109.561C61.5725 109.445 61.6374 109.289 61.6388 109.125C61.6402 108.961 61.578 108.803 61.4655 108.685L59.4322 106.626L61.4655 104.569ZM72.2026 105.319C72.0237 105.138 71.8112 104.994 71.5773 104.896C71.3434 104.798 71.0927 104.747 70.8395 104.747C70.5863 104.747 70.3356 104.798 70.1017 104.896C69.8678 104.994 69.6553 105.138 69.4763 105.319L64.1782 110.681C63.7388 111.126 63.4271 111.684 63.2764 112.294L62.9021 113.806C62.8705 113.934 62.8722 114.068 62.9068 114.195C62.9415 114.321 63.008 114.437 63.0999 114.53C63.1918 114.623 63.306 114.691 63.4313 114.726C63.5566 114.761 63.6888 114.763 63.815 114.731L65.3109 114.353C65.914 114.2 66.4648 113.885 66.9045 113.44L72.2026 108.078C72.564 107.712 72.767 107.216 72.767 106.699C72.767 106.182 72.564 105.684 72.2026 105.319Z" fill="#F24E1E"/>
<ellipse cx="61" cy="127" rx="7" ry="5" fill="#5A4AC7" fill-opacity="0.8"/>
<line x1="61.5" y1="131" x2="61.5" y2="141" stroke="#ADACAC"/>
<path d="M80.5 161C80.5 149.954 71.7696 141 61 141" stroke="#ADACAC"/>
<ellipse cx="62.5" cy="159" rx="11.5" ry="11" fill="#5A4AC7" fill-opacity="0.8"/>
<g clip-path="url(#clip1_90_24)">
<path d="M59 168C61.208 168 63 166.731 63 165.167V162.333H59C56.792 162.333 55 163.603 55 165.167C55 166.731 56.792 168 59 168Z" fill="#0ACF83"/>
<path d="M55 159.5C55 157.936 56.792 156.667 59 156.667H63V162.333H59C56.792 162.333 55 161.064 55 159.5Z" fill="#A259FF"/>
<path d="M55 153.833C55 152.269 56.792 151 59 151H63V156.667H59C56.792 156.667 55 155.397 55 153.833Z" fill="#F24E1E"/>
<path d="M63 151H67C69.208 151 71 152.269 71 153.833C71 155.397 69.208 156.667 67 156.667H63V151Z" fill="#FF7262"/>
<path d="M71 159.5C71 161.064 69.208 162.333 67 162.333C64.792 162.333 63 161.064 63 159.5C63 157.936 64.792 156.667 67 156.667C69.208 156.667 71 157.936 71 159.5Z" fill="#1ABCFE"/>
</g>
<line x1="82" y1="45.5" x2="181" y2="45.5" stroke="#ADACAC"/>
<path d="M84.767 24.5455H85.6051V30.3977C85.6051 30.7339 85.5471 31.0251 85.4311 31.2713C85.3175 31.5175 85.1446 31.7081 84.9126 31.843C84.683 31.978 84.393 32.0455 84.0426 32.0455C84.0142 32.0455 83.9858 32.0455 83.9574 32.0455C83.929 32.0455 83.9006 32.0455 83.8722 32.0455V31.2642C83.9006 31.2642 83.9266 31.2642 83.9503 31.2642C83.974 31.2642 84 31.2642 84.0284 31.2642C84.2841 31.2642 84.4711 31.1884 84.5895 31.0369C84.7079 30.8878 84.767 30.6747 84.767 30.3977V24.5455ZM85.179 23.6364C85.0156 23.6364 84.8748 23.5807 84.7564 23.4695C84.6404 23.3582 84.5824 23.2244 84.5824 23.0682C84.5824 22.9119 84.6404 22.7782 84.7564 22.6669C84.8748 22.5556 85.0156 22.5 85.179 22.5C85.3423 22.5 85.482 22.5556 85.598 22.6669C85.7164 22.7782 85.7756 22.9119 85.7756 23.0682C85.7756 23.2244 85.7164 23.3582 85.598 23.4695C85.482 23.5807 85.3423 23.6364 85.179 23.6364ZM89.356 30.1136C88.8636 30.1136 88.4315 29.9964 88.0598 29.7621C87.6905 29.5277 87.4017 29.1998 87.1934 28.7784C86.9874 28.357 86.8844 27.8646 86.8844 27.3011C86.8844 26.733 86.9874 26.237 87.1934 25.8132C87.4017 25.3894 87.6905 25.0604 88.0598 24.826C88.4315 24.5916 88.8636 24.4744 89.356 24.4744C89.8484 24.4744 90.2793 24.5916 90.6486 24.826C91.0203 25.0604 91.3091 25.3894 91.5151 25.8132C91.7234 26.237 91.8276 26.733 91.8276 27.3011C91.8276 27.8646 91.7234 28.357 91.5151 28.7784C91.3091 29.1998 91.0203 29.5277 90.6486 29.7621C90.2793 29.9964 89.8484 30.1136 89.356 30.1136ZM89.356 29.3608C89.7301 29.3608 90.0378 29.2649 90.2793 29.0732C90.5208 28.8814 90.6995 28.6293 90.8155 28.3168C90.9315 28.0043 90.9895 27.6657 90.9895 27.3011C90.9895 26.9366 90.9315 26.5968 90.8155 26.282C90.6995 25.9671 90.5208 25.7126 90.2793 25.5185C90.0378 25.3243 89.7301 25.2273 89.356 25.2273C88.9819 25.2273 88.6742 25.3243 88.4327 25.5185C88.1912 25.7126 88.0125 25.9671 87.8965 26.282C87.7805 26.5968 87.7225 26.9366 87.7225 27.3011C87.7225 27.6657 87.7805 28.0043 87.8965 28.3168C88.0125 28.6293 88.1912 28.8814 88.4327 29.0732C88.6742 29.2649 88.9819 29.3608 89.356 29.3608ZM95.479 24.5455V25.2557H92.6523V24.5455H95.479ZM93.4762 23.2386H94.3143V28.4375C94.3143 28.6742 94.3486 28.8518 94.4173 28.9702C94.4883 29.0862 94.5782 29.1643 94.6871 29.2045C94.7984 29.2424 94.9156 29.2614 95.0387 29.2614C95.131 29.2614 95.2068 29.2566 95.266 29.2472C95.3252 29.2353 95.3725 29.2259 95.408 29.2188L95.5785 29.9716C95.5217 29.9929 95.4424 30.0142 95.3406 30.0355C95.2388 30.0592 95.1097 30.071 94.9535 30.071C94.7167 30.071 94.4847 30.0201 94.2575 29.9183C94.0326 29.8165 93.8455 29.6615 93.6964 29.4531C93.5496 29.2448 93.4762 28.982 93.4762 28.6648V23.2386ZM101.612 30.1136C101.157 30.1136 100.756 29.9988 100.408 29.7692C100.06 29.5372 99.7878 29.2105 99.5913 28.7891C99.3948 28.3653 99.2965 27.8646 99.2965 27.2869C99.2965 26.714 99.3948 26.2169 99.5913 25.7955C99.7878 25.3741 100.061 25.0485 100.412 24.8189C100.762 24.5893 101.167 24.4744 101.626 24.4744C101.981 24.4744 102.262 24.5336 102.468 24.652C102.676 24.768 102.835 24.9006 102.944 25.0497C103.055 25.1965 103.141 25.3172 103.203 25.4119H103.274V22.7273H104.112V30H103.302V29.1619H103.203C103.141 29.2614 103.054 29.3868 102.94 29.5384C102.826 29.6875 102.664 29.8213 102.453 29.9396C102.243 30.0556 101.962 30.1136 101.612 30.1136ZM101.725 29.3608C102.062 29.3608 102.346 29.2732 102.578 29.098C102.81 28.9205 102.986 28.6754 103.107 28.3629C103.228 28.0481 103.288 27.6847 103.288 27.2727C103.288 26.8655 103.229 26.5092 103.11 26.2038C102.992 25.8961 102.817 25.657 102.585 25.4865C102.353 25.3137 102.066 25.2273 101.725 25.2273C101.37 25.2273 101.074 25.3184 100.838 25.5007C100.603 25.6806 100.427 25.9257 100.309 26.2358C100.193 26.5436 100.135 26.8892 100.135 27.2727C100.135 27.661 100.194 28.0137 100.312 28.331C100.433 28.6458 100.61 28.8968 100.845 29.0838C101.082 29.2685 101.375 29.3608 101.725 29.3608ZM107.979 30.1136C107.487 30.1136 107.055 29.9964 106.683 29.7621C106.314 29.5277 106.025 29.1998 105.816 28.7784C105.61 28.357 105.507 27.8646 105.507 27.3011C105.507 26.733 105.61 26.237 105.816 25.8132C106.025 25.3894 106.314 25.0604 106.683 24.826C107.055 24.5916 107.487 24.4744 107.979 24.4744C108.471 24.4744 108.902 24.5916 109.272 24.826C109.643 25.0604 109.932 25.3894 110.138 25.8132C110.346 26.237 110.451 26.733 110.451 27.3011C110.451 27.8646 110.346 28.357 110.138 28.7784C109.932 29.1998 109.643 29.5277 109.272 29.7621C108.902 29.9964 108.471 30.1136 107.979 30.1136ZM107.979 29.3608C108.353 29.3608 108.661 29.2649 108.902 29.0732C109.144 28.8814 109.323 28.6293 109.439 28.3168C109.555 28.0043 109.613 27.6657 109.613 27.3011C109.613 26.9366 109.555 26.5968 109.439 26.282C109.323 25.9671 109.144 25.7126 108.902 25.5185C108.661 25.3243 108.353 25.2273 107.979 25.2273C107.605 25.2273 107.297 25.3243 107.056 25.5185C106.814 25.7126 106.636 25.9671 106.52 26.282C106.404 26.5968 106.346 26.9366 106.346 27.3011C106.346 27.6657 106.404 28.0043 106.52 28.3168C106.636 28.6293 106.814 28.8814 107.056 29.0732C107.297 29.2649 107.605 29.3608 107.979 29.3608ZM112.78 30L111.118 24.5455H111.999L113.178 28.7216H113.235L114.4 24.5455H115.294L116.445 28.7074H116.502L117.681 24.5455H118.561L116.9 30H116.076L114.882 25.8097H114.797L113.604 30H112.78ZM120.507 26.7188V30H119.669V24.5455H120.479V25.3977H120.55C120.678 25.1207 120.872 24.8982 121.132 24.7301C121.393 24.5597 121.729 24.4744 122.141 24.4744C122.51 24.4744 122.833 24.5502 123.11 24.7017C123.387 24.8509 123.603 25.0781 123.757 25.3835C123.911 25.6866 123.988 26.0701 123.988 26.5341V30H123.15V26.5909C123.15 26.1624 123.038 25.8286 122.816 25.5895C122.593 25.348 122.288 25.2273 121.9 25.2273C121.632 25.2273 121.393 25.2853 121.182 25.4013C120.974 25.5173 120.809 25.6866 120.689 25.9091C120.568 26.1316 120.507 26.4015 120.507 26.7188ZM132.195 25.767L131.442 25.9801C131.395 25.8546 131.325 25.7327 131.233 25.6143C131.143 25.4936 131.02 25.3942 130.863 25.3161C130.707 25.2379 130.507 25.1989 130.263 25.1989C129.93 25.1989 129.651 25.2758 129.429 25.4297C129.209 25.5812 129.099 25.7741 129.099 26.0085C129.099 26.2169 129.174 26.3814 129.326 26.5021C129.477 26.6229 129.714 26.7235 130.036 26.804L130.846 27.0028C131.333 27.1212 131.697 27.3023 131.936 27.5462C132.175 27.7876 132.295 28.099 132.295 28.4801C132.295 28.7926 132.205 29.072 132.025 29.3182C131.847 29.5644 131.599 29.7585 131.279 29.9006C130.959 30.0426 130.588 30.1136 130.164 30.1136C129.608 30.1136 129.147 29.9929 128.782 29.7514C128.418 29.5099 128.187 29.1572 128.09 28.6932L128.885 28.4943C128.961 28.7879 129.104 29.008 129.315 29.1548C129.528 29.3016 129.806 29.375 130.15 29.375C130.54 29.375 130.85 29.2921 131.08 29.1264C131.312 28.9583 131.428 28.7571 131.428 28.5227C131.428 28.3333 131.362 28.1747 131.229 28.0469C131.097 27.9167 130.893 27.8196 130.618 27.7557L129.709 27.5426C129.21 27.4242 128.843 27.2408 128.608 26.9922C128.376 26.7412 128.26 26.4276 128.26 26.0511C128.26 25.7434 128.347 25.4711 128.52 25.2344C128.695 24.9976 128.933 24.8118 129.233 24.6768C129.537 24.5419 129.88 24.4744 130.263 24.4744C130.803 24.4744 131.227 24.5928 131.535 24.8295C131.845 25.0663 132.065 25.3788 132.195 25.767ZM135.772 30.1136C135.28 30.1136 134.848 29.9964 134.476 29.7621C134.107 29.5277 133.818 29.1998 133.609 28.7784C133.403 28.357 133.3 27.8646 133.3 27.3011C133.3 26.733 133.403 26.237 133.609 25.8132C133.818 25.3894 134.107 25.0604 134.476 24.826C134.848 24.5916 135.28 24.4744 135.772 24.4744C136.264 24.4744 136.695 24.5916 137.065 24.826C137.436 25.0604 137.725 25.3894 137.931 25.8132C138.139 26.237 138.244 26.733 138.244 27.3011C138.244 27.8646 138.139 28.357 137.931 28.7784C137.725 29.1998 137.436 29.5277 137.065 29.7621C136.695 29.9964 136.264 30.1136 135.772 30.1136ZM135.772 29.3608C136.146 29.3608 136.454 29.2649 136.695 29.0732C136.937 28.8814 137.116 28.6293 137.232 28.3168C137.348 28.0043 137.406 27.6657 137.406 27.3011C137.406 26.9366 137.348 26.5968 137.232 26.282C137.116 25.9671 136.937 25.7126 136.695 25.5185C136.454 25.3243 136.146 25.2273 135.772 25.2273C135.398 25.2273 135.09 25.3243 134.849 25.5185C134.607 25.7126 134.429 25.9671 134.312 26.282C134.196 26.5968 134.138 26.9366 134.138 27.3011C134.138 27.6657 134.196 28.0043 134.312 28.3168C134.429 28.6293 134.607 28.8814 134.849 29.0732C135.09 29.2649 135.398 29.3608 135.772 29.3608ZM139.523 30V24.5455H140.333V25.3977H140.404C140.517 25.1065 140.701 24.8804 140.954 24.7195C141.207 24.5561 141.512 24.4744 141.867 24.4744C142.227 24.4744 142.526 24.5561 142.765 24.7195C143.007 24.8804 143.195 25.1065 143.33 25.3977H143.387C143.526 25.116 143.736 24.8923 144.015 24.7266C144.294 24.5585 144.629 24.4744 145.02 24.4744C145.508 24.4744 145.907 24.6271 146.217 24.9325C146.527 25.2356 146.682 25.7079 146.682 26.3494V30H145.844V26.3494C145.844 25.947 145.734 25.6593 145.514 25.4865C145.294 25.3137 145.034 25.2273 144.736 25.2273C144.352 25.2273 144.055 25.3433 143.845 25.5753C143.634 25.8049 143.529 26.0961 143.529 26.4489V30H142.676V26.2642C142.676 25.9541 142.576 25.7043 142.374 25.5149C142.173 25.3232 141.914 25.2273 141.597 25.2273C141.379 25.2273 141.175 25.2853 140.986 25.4013C140.799 25.5173 140.647 25.6783 140.531 25.8842C140.418 26.0878 140.361 26.3234 140.361 26.5909V30H139.523ZM150.501 30.1136C149.976 30.1136 149.522 29.9976 149.141 29.7656C148.762 29.5312 148.47 29.2045 148.264 28.7855C148.06 28.3641 147.959 27.8741 147.959 27.3153C147.959 26.7566 148.06 26.2642 148.264 25.8381C148.47 25.4096 148.756 25.0758 149.123 24.8366C149.493 24.5952 149.924 24.4744 150.416 24.4744C150.7 24.4744 150.981 24.5218 151.258 24.6165C151.535 24.7112 151.787 24.8651 152.014 25.0781C152.241 25.2888 152.422 25.5682 152.557 25.9162C152.692 26.2642 152.76 26.6927 152.76 27.2017V27.5568H148.555V26.8324H151.907C151.907 26.5246 151.846 26.25 151.723 26.0085C151.602 25.767 151.429 25.5765 151.204 25.4368C150.982 25.2971 150.719 25.2273 150.416 25.2273C150.082 25.2273 149.793 25.3101 149.55 25.4759C149.308 25.6392 149.122 25.8523 148.992 26.1151C148.862 26.3778 148.797 26.6596 148.797 26.9602V27.4432C148.797 27.8551 148.868 28.2043 149.01 28.4908C149.154 28.7749 149.354 28.9915 149.61 29.1406C149.866 29.2874 150.163 29.3608 150.501 29.3608C150.721 29.3608 150.92 29.33 151.098 29.2685C151.278 29.2045 151.433 29.1098 151.563 28.9844C151.693 28.8565 151.794 28.6979 151.865 28.5085L152.675 28.7358C152.589 29.0104 152.446 29.2519 152.245 29.4602C152.044 29.6662 151.795 29.8272 151.499 29.9432C151.203 30.0568 150.871 30.1136 150.501 30.1136ZM85.6051 34.7273V42H84.767V34.7273H85.6051ZM88.7452 42.1278C88.3996 42.1278 88.0859 42.0627 87.8042 41.9325C87.5224 41.8 87.2987 41.6094 87.133 41.3608C86.9673 41.1098 86.8844 40.8068 86.8844 40.4517C86.8844 40.1392 86.946 39.8859 87.0691 39.6918C87.1922 39.4953 87.3567 39.3414 87.5627 39.2301C87.7686 39.1188 87.9959 39.036 88.2445 38.9815C88.4954 38.9247 88.7476 38.8797 89.0009 38.8466C89.3323 38.804 89.601 38.772 89.807 38.7507C90.0153 38.727 90.1668 38.688 90.2615 38.6335C90.3586 38.5791 90.4071 38.4844 90.4071 38.3494V38.321C90.4071 37.9706 90.3113 37.6984 90.1195 37.5043C89.9301 37.3101 89.6425 37.2131 89.2566 37.2131C88.8565 37.2131 88.5428 37.3007 88.3155 37.4759C88.0882 37.651 87.9284 37.8381 87.8361 38.0369L87.0407 37.7528C87.1827 37.4214 87.3721 37.1634 87.6088 36.9787C87.848 36.7917 88.1084 36.6615 88.3901 36.5881C88.6742 36.5123 88.9535 36.4744 89.2282 36.4744C89.4033 36.4744 89.6046 36.4957 89.8319 36.5384C90.0615 36.5786 90.2828 36.6626 90.4959 36.7905C90.7114 36.9183 90.8901 37.1113 91.0321 37.3693C91.1742 37.6274 91.2452 37.973 91.2452 38.4062V42H90.4071V41.2614H90.3645C90.3077 41.3797 90.213 41.5064 90.0804 41.6413C89.9479 41.7763 89.7715 41.8911 89.5513 41.9858C89.3311 42.0805 89.0624 42.1278 88.7452 42.1278ZM88.873 41.375C89.2045 41.375 89.4838 41.3099 89.7111 41.1797C89.9408 41.0495 90.1136 40.8814 90.2296 40.6754C90.348 40.4695 90.4071 40.2528 90.4071 40.0256V39.2585C90.3716 39.3011 90.2935 39.3402 90.1728 39.3757C90.0544 39.4089 89.9171 39.4384 89.7608 39.4645C89.6069 39.4882 89.4566 39.5095 89.3098 39.5284C89.1654 39.545 89.0482 39.5592 88.9583 39.571C88.7405 39.5994 88.5369 39.6456 88.3475 39.7095C88.1605 39.7711 88.0089 39.8646 87.8929 39.9901C87.7793 40.1132 87.7225 40.2812 87.7225 40.4943C87.7225 40.7855 87.8302 41.0057 88.0456 41.1548C88.2634 41.3016 88.5392 41.375 88.873 41.375ZM93.1193 44.0455C92.9773 44.0455 92.8506 44.0336 92.7393 44.0099C92.6281 43.9886 92.5511 43.9673 92.5085 43.946L92.7216 43.2074C92.9252 43.2595 93.1051 43.2784 93.2614 43.2642C93.4176 43.25 93.5561 43.1802 93.6768 43.0547C93.8 42.9316 93.9124 42.7315 94.0142 42.4545L94.1705 42.0284L92.1534 36.5455H93.0625L94.5682 40.892H94.625L96.1307 36.5455H97.0398L94.7244 42.7955C94.6203 43.0772 94.4912 43.3104 94.3374 43.495C94.1835 43.6821 94.0047 43.8205 93.8011 43.9105C93.5999 44.0005 93.3726 44.0455 93.1193 44.0455ZM100.167 42.1136C99.6741 42.1136 99.2421 41.9964 98.8704 41.7621C98.5011 41.5277 98.2122 41.1998 98.0039 40.7784C97.7979 40.357 97.695 39.8646 97.695 39.3011C97.695 38.733 97.7979 38.237 98.0039 37.8132C98.2122 37.3894 98.5011 37.0604 98.8704 36.826C99.2421 36.5916 99.6741 36.4744 100.167 36.4744C100.659 36.4744 101.09 36.5916 101.459 36.826C101.831 37.0604 102.12 37.3894 102.326 37.8132C102.534 38.237 102.638 38.733 102.638 39.3011C102.638 39.8646 102.534 40.357 102.326 40.7784C102.12 41.1998 101.831 41.5277 101.459 41.7621C101.09 41.9964 100.659 42.1136 100.167 42.1136ZM100.167 41.3608C100.541 41.3608 100.848 41.2649 101.09 41.0732C101.331 40.8814 101.51 40.6293 101.626 40.3168C101.742 40.0043 101.8 39.6657 101.8 39.3011C101.8 38.9366 101.742 38.5968 101.626 38.282C101.51 37.9671 101.331 37.7126 101.09 37.5185C100.848 37.3243 100.541 37.2273 100.167 37.2273C99.7925 37.2273 99.4847 37.3243 99.2433 37.5185C99.0018 37.7126 98.823 37.9671 98.707 38.282C98.591 38.5968 98.533 38.9366 98.533 39.3011C98.533 39.6657 98.591 40.0043 98.707 40.3168C98.823 40.6293 99.0018 40.8814 99.2433 41.0732C99.4847 41.2649 99.7925 41.3608 100.167 41.3608ZM107.355 39.7699V36.5455H108.193V42H107.355V41.0767H107.298C107.17 41.3537 106.971 41.5893 106.702 41.7834C106.432 41.9751 106.091 42.071 105.679 42.071C105.338 42.071 105.035 41.9964 104.77 41.8473C104.505 41.6958 104.296 41.4685 104.145 41.1655C103.993 40.8601 103.917 40.4754 103.917 40.0114V36.5455H104.756V39.9545C104.756 40.3523 104.867 40.6695 105.089 40.9062C105.314 41.143 105.601 41.2614 105.949 41.2614C106.157 41.2614 106.369 41.2081 106.584 41.1016C106.802 40.995 106.984 40.8317 107.131 40.6115C107.28 40.3913 107.355 40.1108 107.355 39.7699ZM112.1 36.5455V37.2557H109.273V36.5455H112.1ZM110.097 35.2386H110.935V40.4375C110.935 40.6742 110.97 40.8518 111.038 40.9702C111.109 41.0862 111.199 41.1643 111.308 41.2045C111.42 41.2424 111.537 41.2614 111.66 41.2614C111.752 41.2614 111.828 41.2566 111.887 41.2472C111.946 41.2353 111.994 41.2259 112.029 41.2188L112.2 41.9716C112.143 41.9929 112.063 42.0142 111.962 42.0355C111.86 42.0592 111.731 42.071 111.575 42.071C111.338 42.071 111.106 42.0201 110.879 41.9183C110.654 41.8165 110.467 41.6615 110.317 41.4531C110.171 41.2448 110.097 40.982 110.097 40.6648V35.2386ZM116.173 42V36.5455H117.011V42H116.173ZM116.599 35.6364C116.436 35.6364 116.295 35.5807 116.177 35.4695C116.061 35.3582 116.003 35.2244 116.003 35.0682C116.003 34.9119 116.061 34.7782 116.177 34.6669C116.295 34.5556 116.436 34.5 116.599 34.5C116.763 34.5 116.902 34.5556 117.018 34.6669C117.137 34.7782 117.196 34.9119 117.196 35.0682C117.196 35.2244 117.137 35.3582 117.018 35.4695C116.902 35.5807 116.763 35.6364 116.599 35.6364ZM120.606 42.1136C120.151 42.1136 119.75 41.9988 119.402 41.7692C119.054 41.5372 118.782 41.2105 118.585 40.7891C118.389 40.3653 118.291 39.8646 118.291 39.2869C118.291 38.714 118.389 38.2169 118.585 37.7955C118.782 37.3741 119.055 37.0485 119.406 36.8189C119.756 36.5893 120.161 36.4744 120.62 36.4744C120.975 36.4744 121.256 36.5336 121.462 36.652C121.67 36.768 121.829 36.9006 121.938 37.0497C122.049 37.1965 122.135 37.3172 122.197 37.4119H122.268V34.7273H123.106V42H122.296V41.1619H122.197C122.135 41.2614 122.048 41.3868 121.934 41.5384C121.82 41.6875 121.658 41.8213 121.448 41.9396C121.237 42.0556 120.956 42.1136 120.606 42.1136ZM120.72 41.3608C121.056 41.3608 121.34 41.2732 121.572 41.098C121.804 40.9205 121.98 40.6754 122.101 40.3629C122.222 40.0481 122.282 39.6847 122.282 39.2727C122.282 38.8655 122.223 38.5092 122.105 38.2038C121.986 37.8961 121.811 37.657 121.579 37.4865C121.347 37.3137 121.061 37.2273 120.72 37.2273C120.365 37.2273 120.069 37.3184 119.832 37.5007C119.597 37.6806 119.421 37.9257 119.303 38.2358C119.187 38.5436 119.129 38.8892 119.129 39.2727C119.129 39.661 119.188 40.0137 119.306 40.331C119.427 40.6458 119.605 40.8968 119.839 41.0838C120.076 41.2685 120.369 41.3608 120.72 41.3608ZM127.044 42.1136C126.519 42.1136 126.065 41.9976 125.684 41.7656C125.305 41.5312 125.013 41.2045 124.807 40.7855C124.603 40.3641 124.502 39.8741 124.502 39.3153C124.502 38.7566 124.603 38.2642 124.807 37.8381C125.013 37.4096 125.299 37.0758 125.666 36.8366C126.036 36.5952 126.467 36.4744 126.959 36.4744C127.243 36.4744 127.524 36.5218 127.801 36.6165C128.078 36.7112 128.33 36.8651 128.557 37.0781C128.784 37.2888 128.965 37.5682 129.1 37.9162C129.235 38.2642 129.303 38.6927 129.303 39.2017V39.5568H125.098V38.8324H128.45C128.45 38.5246 128.389 38.25 128.266 38.0085C128.145 37.767 127.972 37.5765 127.747 37.4368C127.525 37.2971 127.262 37.2273 126.959 37.2273C126.625 37.2273 126.336 37.3101 126.093 37.4759C125.851 37.6392 125.665 37.8523 125.535 38.1151C125.405 38.3778 125.34 38.6596 125.34 38.9602V39.4432C125.34 39.8551 125.411 40.2043 125.553 40.4908C125.697 40.7749 125.897 40.9915 126.153 41.1406C126.409 41.2874 126.706 41.3608 127.044 41.3608C127.264 41.3608 127.463 41.33 127.641 41.2685C127.821 41.2045 127.976 41.1098 128.106 40.9844C128.236 40.8565 128.337 40.6979 128.408 40.5085L129.218 40.7358C129.132 41.0104 128.989 41.2519 128.788 41.4602C128.587 41.6662 128.338 41.8272 128.042 41.9432C127.746 42.0568 127.414 42.1136 127.044 42.1136ZM132.183 42.1278C131.837 42.1278 131.523 42.0627 131.242 41.9325C130.96 41.8 130.736 41.6094 130.57 41.3608C130.405 41.1098 130.322 40.8068 130.322 40.4517C130.322 40.1392 130.383 39.8859 130.507 39.6918C130.63 39.4953 130.794 39.3414 131 39.2301C131.206 39.1188 131.433 39.036 131.682 38.9815C131.933 38.9247 132.185 38.8797 132.438 38.8466C132.77 38.804 133.039 38.772 133.244 38.7507C133.453 38.727 133.604 38.688 133.699 38.6335C133.796 38.5791 133.845 38.4844 133.845 38.3494V38.321C133.845 37.9706 133.749 37.6984 133.557 37.5043C133.368 37.3101 133.08 37.2131 132.694 37.2131C132.294 37.2131 131.98 37.3007 131.753 37.4759C131.526 37.651 131.366 37.8381 131.274 38.0369L130.478 37.7528C130.62 37.4214 130.81 37.1634 131.046 36.9787C131.285 36.7917 131.546 36.6615 131.828 36.5881C132.112 36.5123 132.391 36.4744 132.666 36.4744C132.841 36.4744 133.042 36.4957 133.269 36.5384C133.499 36.5786 133.72 36.6626 133.933 36.7905C134.149 36.9183 134.328 37.1113 134.47 37.3693C134.612 37.6274 134.683 37.973 134.683 38.4062V42H133.845V41.2614H133.802C133.745 41.3797 133.651 41.5064 133.518 41.6413C133.385 41.7763 133.209 41.8911 132.989 41.9858C132.769 42.0805 132.5 42.1278 132.183 42.1278ZM132.311 41.375C132.642 41.375 132.921 41.3099 133.149 41.1797C133.378 41.0495 133.551 40.8814 133.667 40.6754C133.785 40.4695 133.845 40.2528 133.845 40.0256V39.2585C133.809 39.3011 133.731 39.3402 133.61 39.3757C133.492 39.4089 133.355 39.4384 133.198 39.4645C133.044 39.4882 132.894 39.5095 132.747 39.5284C132.603 39.545 132.486 39.5592 132.396 39.571C132.178 39.5994 131.974 39.6456 131.785 39.7095C131.598 39.7711 131.446 39.8646 131.33 39.9901C131.217 40.1132 131.16 40.2812 131.16 40.4943C131.16 40.7855 131.268 41.0057 131.483 41.1548C131.701 41.3016 131.977 41.375 132.311 41.375ZM140.076 37.767L139.323 37.9801C139.276 37.8546 139.206 37.7327 139.114 37.6143C139.024 37.4936 138.901 37.3942 138.744 37.3161C138.588 37.2379 138.388 37.1989 138.144 37.1989C137.81 37.1989 137.532 37.2758 137.31 37.4297C137.089 37.5812 136.979 37.7741 136.979 38.0085C136.979 38.2169 137.055 38.3814 137.207 38.5021C137.358 38.6229 137.595 38.7235 137.917 38.804L138.727 39.0028C139.214 39.1212 139.578 39.3023 139.817 39.5462C140.056 39.7876 140.175 40.099 140.175 40.4801C140.175 40.7926 140.085 41.072 139.906 41.3182C139.728 41.5644 139.479 41.7585 139.16 41.9006C138.84 42.0426 138.469 42.1136 138.045 42.1136C137.488 42.1136 137.028 41.9929 136.663 41.7514C136.299 41.5099 136.068 41.1572 135.971 40.6932L136.766 40.4943C136.842 40.7879 136.985 41.008 137.196 41.1548C137.409 41.3016 137.687 41.375 138.031 41.375C138.421 41.375 138.731 41.2921 138.961 41.1264C139.193 40.9583 139.309 40.7571 139.309 40.5227C139.309 40.3333 139.243 40.1747 139.11 40.0469C138.978 39.9167 138.774 39.8196 138.499 39.7557L137.59 39.5426C137.091 39.4242 136.724 39.2408 136.489 38.9922C136.257 38.7412 136.141 38.4276 136.141 38.0511C136.141 37.7434 136.228 37.4711 136.401 37.2344C136.576 36.9976 136.814 36.8118 137.114 36.6768C137.417 36.5419 137.761 36.4744 138.144 36.4744C138.684 36.4744 139.108 36.5928 139.415 36.8295C139.726 37.0663 139.946 37.3788 140.076 37.767ZM144.249 42V36.5455H145.088V42H144.249ZM144.676 35.6364C144.512 35.6364 144.371 35.5807 144.253 35.4695C144.137 35.3582 144.079 35.2244 144.079 35.0682C144.079 34.9119 144.137 34.7782 144.253 34.6669C144.371 34.5556 144.512 34.5 144.676 34.5C144.839 34.5 144.979 34.5556 145.095 34.6669C145.213 34.7782 145.272 34.9119 145.272 35.0682C145.272 35.2244 145.213 35.3582 145.095 35.4695C144.979 35.5807 144.839 35.6364 144.676 35.6364ZM147.461 38.7188V42H146.623V36.5455H147.432V37.3977H147.503C147.631 37.1207 147.825 36.8982 148.086 36.7301C148.346 36.5597 148.682 36.4744 149.094 36.4744C149.463 36.4744 149.787 36.5502 150.064 36.7017C150.341 36.8509 150.556 37.0781 150.71 37.3835C150.864 37.6866 150.941 38.0701 150.941 38.5341V42H150.103V38.5909C150.103 38.1624 149.991 37.8286 149.769 37.5895C149.546 37.348 149.241 37.2273 148.853 37.2273C148.585 37.2273 148.346 37.2853 148.135 37.4013C147.927 37.5173 147.762 37.6866 147.642 37.9091C147.521 38.1316 147.461 38.4015 147.461 38.7188ZM157.714 36.5455V37.2557H154.773V36.5455H157.714ZM155.654 42V35.7926C155.654 35.4801 155.727 35.2197 155.874 35.0114C156.021 34.803 156.211 34.6468 156.446 34.5426C156.68 34.4384 156.928 34.3864 157.188 34.3864C157.394 34.3864 157.562 34.4029 157.692 34.4361C157.823 34.4692 157.92 34.5 157.983 34.5284L157.742 35.2528C157.699 35.2386 157.64 35.2209 157.564 35.1996C157.491 35.1783 157.394 35.1676 157.273 35.1676C156.996 35.1676 156.796 35.2375 156.673 35.3771C156.552 35.5168 156.492 35.7216 156.492 35.9915V42H155.654ZM158.888 42V36.5455H159.726V42H158.888ZM159.314 35.6364C159.151 35.6364 159.01 35.5807 158.892 35.4695C158.776 35.3582 158.718 35.2244 158.718 35.0682C158.718 34.9119 158.776 34.7782 158.892 34.6669C159.01 34.5556 159.151 34.5 159.314 34.5C159.478 34.5 159.617 34.5556 159.733 34.6669C159.852 34.7782 159.911 34.9119 159.911 35.0682C159.911 35.2244 159.852 35.3582 159.733 35.4695C159.617 35.5807 159.478 35.6364 159.314 35.6364ZM163.463 44.1591C163.058 44.1591 162.71 44.107 162.419 44.0028C162.128 43.901 161.885 43.7661 161.691 43.598C161.499 43.4323 161.346 43.2547 161.233 43.0653L161.9 42.5966C161.976 42.696 162.072 42.8097 162.188 42.9375C162.304 43.0677 162.463 43.1802 162.664 43.2749C162.867 43.3719 163.134 43.4205 163.463 43.4205C163.903 43.4205 164.267 43.3139 164.553 43.1009C164.84 42.8878 164.983 42.554 164.983 42.0994V40.9915H164.912C164.85 41.0909 164.763 41.214 164.649 41.3608C164.538 41.5052 164.377 41.6342 164.166 41.7479C163.958 41.8591 163.676 41.9148 163.321 41.9148C162.881 41.9148 162.485 41.8106 162.135 41.6023C161.787 41.3939 161.511 41.0909 161.307 40.6932C161.106 40.2955 161.006 39.8125 161.006 39.2443C161.006 38.6856 161.104 38.1991 161.3 37.7848C161.497 37.3681 161.77 37.0462 162.121 36.8189C162.471 36.5893 162.876 36.4744 163.335 36.4744C163.69 36.4744 163.972 36.5336 164.18 36.652C164.391 36.768 164.552 36.9006 164.663 37.0497C164.777 37.1965 164.864 37.3172 164.926 37.4119H165.011V36.5455H165.821V42.1562C165.821 42.625 165.714 43.0062 165.501 43.2997C165.291 43.5956 165.006 43.8123 164.649 43.9496C164.294 44.0893 163.898 44.1591 163.463 44.1591ZM163.434 41.1619C163.771 41.1619 164.055 41.085 164.287 40.9311C164.519 40.7772 164.695 40.5559 164.816 40.267C164.937 39.9782 164.997 39.6326 164.997 39.2301C164.997 38.8371 164.938 38.4903 164.819 38.1896C164.701 37.889 164.526 37.6534 164.294 37.483C164.062 37.3125 163.775 37.2273 163.434 37.2273C163.079 37.2273 162.783 37.3172 162.547 37.4972C162.312 37.6771 162.136 37.9186 162.018 38.2216C161.902 38.5246 161.844 38.8608 161.844 39.2301C161.844 39.6089 161.903 39.9439 162.021 40.2351C162.142 40.5239 162.319 40.7512 162.554 40.9169C162.791 41.0803 163.084 41.1619 163.434 41.1619ZM167.355 42V36.5455H168.165V37.3977H168.236C168.349 37.1065 168.533 36.8804 168.786 36.7195C169.039 36.5561 169.344 36.4744 169.699 36.4744C170.059 36.4744 170.358 36.5561 170.597 36.7195C170.839 36.8804 171.027 37.1065 171.162 37.3977H171.219C171.358 37.116 171.568 36.8923 171.847 36.7266C172.126 36.5585 172.461 36.4744 172.852 36.4744C173.34 36.4744 173.739 36.6271 174.049 36.9325C174.359 37.2356 174.514 37.7079 174.514 38.3494V42H173.676V38.3494C173.676 37.947 173.566 37.6593 173.346 37.4865C173.126 37.3137 172.866 37.2273 172.568 37.2273C172.184 37.2273 171.887 37.3433 171.677 37.5753C171.466 37.8049 171.361 38.0961 171.361 38.4489V42H170.508V38.2642C170.508 37.9541 170.408 37.7043 170.206 37.5149C170.005 37.3232 169.746 37.2273 169.429 37.2273C169.211 37.2273 169.007 37.2853 168.818 37.4013C168.631 37.5173 168.479 37.6783 168.363 37.8842C168.25 38.0878 168.193 38.3234 168.193 38.5909V42H167.355ZM177.651 42.1278C177.306 42.1278 176.992 42.0627 176.71 41.9325C176.429 41.8 176.205 41.6094 176.039 41.3608C175.874 41.1098 175.791 40.8068 175.791 40.4517C175.791 40.1392 175.852 39.8859 175.975 39.6918C176.098 39.4953 176.263 39.3414 176.469 39.2301C176.675 39.1188 176.902 39.036 177.151 38.9815C177.402 38.9247 177.654 38.8797 177.907 38.8466C178.239 38.804 178.507 38.772 178.713 38.7507C178.922 38.727 179.073 38.688 179.168 38.6335C179.265 38.5791 179.313 38.4844 179.313 38.3494V38.321C179.313 37.9706 179.218 37.6984 179.026 37.5043C178.836 37.3101 178.549 37.2131 178.163 37.2131C177.763 37.2131 177.449 37.3007 177.222 37.4759C176.994 37.651 176.835 37.8381 176.742 38.0369L175.947 37.7528C176.089 37.4214 176.278 37.1634 176.515 36.9787C176.754 36.7917 177.015 36.6615 177.296 36.5881C177.58 36.5123 177.86 36.4744 178.134 36.4744C178.31 36.4744 178.511 36.4957 178.738 36.5384C178.968 36.5786 179.189 36.6626 179.402 36.7905C179.618 36.9183 179.796 37.1113 179.938 37.3693C180.08 37.6274 180.151 37.973 180.151 38.4062V42H179.313V41.2614H179.271C179.214 41.3797 179.119 41.5064 178.987 41.6413C178.854 41.7763 178.678 41.8911 178.458 41.9858C178.237 42.0805 177.969 42.1278 177.651 42.1278ZM177.779 41.375C178.111 41.375 178.39 41.3099 178.617 41.1797C178.847 41.0495 179.02 40.8814 179.136 40.6754C179.254 40.4695 179.313 40.2528 179.313 40.0256V39.2585C179.278 39.3011 179.2 39.3402 179.079 39.3757C178.961 39.4089 178.823 39.4384 178.667 39.4645C178.513 39.4882 178.363 39.5095 178.216 39.5284C178.072 39.545 177.954 39.5592 177.865 39.571C177.647 39.5994 177.443 39.6456 177.254 39.7095C177.067 39.7711 176.915 39.8646 176.799 39.9901C176.686 40.1132 176.629 40.2812 176.629 40.4943C176.629 40.7855 176.736 41.0057 176.952 41.1548C177.17 41.3016 177.445 41.375 177.779 41.375Z" fill="#5A4AC7" fill-opacity="0.8"/>
<line x1="41.0122" y1="106.5" x2="0.012193" y2="107.5" stroke="#ADACAC"/>
<path d="M10.983 92.1136C10.4716 92.1136 10.0313 91.9929 9.66193 91.7514C9.29261 91.5099 9.00852 91.1773 8.80966 90.7536C8.6108 90.3298 8.51136 89.8456 8.51136 89.3011C8.51136 88.7472 8.61316 88.2583 8.81676 87.8345C9.02273 87.4084 9.30919 87.0758 9.67614 86.8366C10.0455 86.5952 10.4763 86.4744 10.9688 86.4744C11.3523 86.4744 11.6979 86.5455 12.0057 86.6875C12.3134 86.8295 12.5656 87.0284 12.7621 87.2841C12.9586 87.5398 13.0805 87.8381 13.1278 88.179H12.2898C12.2259 87.9304 12.0838 87.7102 11.8636 87.5185C11.6458 87.3243 11.3523 87.2273 10.983 87.2273C10.6563 87.2273 10.3698 87.3125 10.1236 87.483C9.87973 87.651 9.68916 87.889 9.55185 88.1967C9.4169 88.5021 9.34943 88.8608 9.34943 89.2727C9.34943 89.6941 9.41572 90.0611 9.5483 90.3736C9.68324 90.6861 9.87263 90.9287 10.1165 91.1016C10.3627 91.2744 10.6515 91.3608 10.983 91.3608C11.2008 91.3608 11.3984 91.3229 11.576 91.2472C11.7536 91.1714 11.9039 91.0625 12.027 90.9205C12.1501 90.7784 12.2377 90.608 12.2898 90.4091H13.1278C13.0805 90.7311 12.9633 91.0211 12.7763 91.2791C12.5916 91.5348 12.3466 91.7384 12.0412 91.8899C11.7382 92.0391 11.3854 92.1136 10.983 92.1136ZM16.5689 92.1136C16.0765 92.1136 15.6444 91.9964 15.2727 91.7621C14.9034 91.5277 14.6146 91.1998 14.4062 90.7784C14.2003 90.357 14.0973 89.8646 14.0973 89.3011C14.0973 88.733 14.2003 88.237 14.4062 87.8132C14.6146 87.3894 14.9034 87.0604 15.2727 86.826C15.6444 86.5916 16.0765 86.4744 16.5689 86.4744C17.0613 86.4744 17.4922 86.5916 17.8615 86.826C18.2332 87.0604 18.522 87.3894 18.728 87.8132C18.9363 88.237 19.0405 88.733 19.0405 89.3011C19.0405 89.8646 18.9363 90.357 18.728 90.7784C18.522 91.1998 18.2332 91.5277 17.8615 91.7621C17.4922 91.9964 17.0613 92.1136 16.5689 92.1136ZM16.5689 91.3608C16.9429 91.3608 17.2507 91.2649 17.4922 91.0732C17.7337 90.8814 17.9124 90.6293 18.0284 90.3168C18.1444 90.0043 18.2024 89.6657 18.2024 89.3011C18.2024 88.9366 18.1444 88.5968 18.0284 88.282C17.9124 87.9671 17.7337 87.7126 17.4922 87.5185C17.2507 87.3243 16.9429 87.2273 16.5689 87.2273C16.1948 87.2273 15.8871 87.3243 15.6456 87.5185C15.4041 87.7126 15.2254 87.9671 15.1094 88.282C14.9934 88.5968 14.9354 88.9366 14.9354 89.3011C14.9354 89.6657 14.9934 90.0043 15.1094 90.3168C15.2254 90.6293 15.4041 90.8814 15.6456 91.0732C15.8871 91.2649 16.1948 91.3608 16.5689 91.3608ZM22.3794 92.1136C21.9249 92.1136 21.5236 91.9988 21.1756 91.7692C20.8276 91.5372 20.5553 91.2105 20.3588 90.7891C20.1623 90.3653 20.0641 89.8646 20.0641 89.2869C20.0641 88.714 20.1623 88.2169 20.3588 87.7955C20.5553 87.3741 20.8288 87.0485 21.1792 86.8189C21.5295 86.5893 21.9344 86.4744 22.3936 86.4744C22.7488 86.4744 23.0293 86.5336 23.2353 86.652C23.4436 86.768 23.6022 86.9006 23.7111 87.0497C23.8224 87.1965 23.9088 87.3172 23.9703 87.4119H24.0414V84.7273H24.8794V92H24.0698V91.1619H23.9703C23.9088 91.2614 23.8212 91.3868 23.7076 91.5384C23.5939 91.6875 23.4318 91.8213 23.2211 91.9396C23.0104 92.0556 22.7298 92.1136 22.3794 92.1136ZM22.4931 91.3608C22.8292 91.3608 23.1133 91.2732 23.3453 91.098C23.5774 90.9205 23.7537 90.6754 23.8745 90.3629C23.9952 90.0481 24.0556 89.6847 24.0556 89.2727C24.0556 88.8655 23.9964 88.5092 23.878 88.2038C23.7596 87.8961 23.5845 87.657 23.3525 87.4865C23.1204 87.3137 22.834 87.2273 22.4931 87.2273C22.138 87.2273 21.842 87.3184 21.6053 87.5007C21.3709 87.6806 21.1945 87.9257 21.0762 88.2358C20.9602 88.5436 20.9022 88.8892 20.9022 89.2727C20.9022 89.661 20.9614 90.0137 21.0797 90.331C21.2005 90.6458 21.378 90.8968 21.6124 91.0838C21.8491 91.2685 22.1427 91.3608 22.4931 91.3608ZM26.5307 92V86.5455H27.3688V92H26.5307ZM26.9569 85.6364C26.7935 85.6364 26.6526 85.5807 26.5343 85.4695C26.4183 85.3582 26.3603 85.2244 26.3603 85.0682C26.3603 84.9119 26.4183 84.7782 26.5343 84.6669C26.6526 84.5556 26.7935 84.5 26.9569 84.5C27.1202 84.5 27.2599 84.5556 27.3759 84.6669C27.4943 84.7782 27.5534 84.9119 27.5534 85.0682C27.5534 85.2244 27.4943 85.3582 27.3759 85.4695C27.2599 85.5807 27.1202 85.6364 26.9569 85.6364ZM29.7418 88.7188V92H28.9038V86.5455H29.7134V87.3977H29.7844C29.9123 87.1207 30.1064 86.8982 30.3668 86.7301C30.6272 86.5597 30.9634 86.4744 31.3754 86.4744C31.7447 86.4744 32.0678 86.5502 32.3448 86.7017C32.6218 86.8509 32.8372 87.0781 32.9911 87.3835C33.145 87.6866 33.2219 88.0701 33.2219 88.5341V92H32.3839V88.5909C32.3839 88.1624 32.2726 87.8286 32.0501 87.5895C31.8275 87.348 31.5221 87.2273 31.1339 87.2273C30.8664 87.2273 30.6272 87.2853 30.4165 87.4013C30.2082 87.5173 30.0437 87.6866 29.9229 87.9091C29.8022 88.1316 29.7418 88.4015 29.7418 88.7188ZM36.9551 94.1591C36.5502 94.1591 36.2022 94.107 35.911 94.0028C35.6199 93.901 35.3772 93.7661 35.1831 93.598C34.9913 93.4323 34.8386 93.2547 34.725 93.0653L35.3926 92.5966C35.4683 92.696 35.5642 92.8097 35.6802 92.9375C35.7962 93.0677 35.9548 93.1802 36.1561 93.2749C36.3597 93.3719 36.626 93.4205 36.9551 93.4205C37.3954 93.4205 37.7588 93.3139 38.0453 93.1009C38.3317 92.8878 38.475 92.554 38.475 92.0994V90.9915H38.4039C38.3424 91.0909 38.2548 91.214 38.1412 91.3608C38.0299 91.5052 37.8689 91.6342 37.6582 91.7479C37.4499 91.8591 37.1681 91.9148 36.813 91.9148C36.3727 91.9148 35.9773 91.8106 35.627 91.6023C35.2789 91.3939 35.0031 91.0909 34.7995 90.6932C34.5983 90.2955 34.4977 89.8125 34.4977 89.2443C34.4977 88.6856 34.5959 88.1991 34.7924 87.7848C34.9889 87.3681 35.2624 87.0462 35.6127 86.8189C35.9631 86.5893 36.368 86.4744 36.8272 86.4744C37.1824 86.4744 37.4641 86.5336 37.6724 86.652C37.8831 86.768 38.0441 86.9006 38.1554 87.0497C38.269 87.1965 38.3566 87.3172 38.4181 87.4119H38.5034V86.5455H39.313V92.1562C39.313 92.625 39.2065 93.0062 38.9934 93.2997C38.7827 93.5956 38.4986 93.8123 38.1412 93.9496C37.786 94.0893 37.3907 94.1591 36.9551 94.1591ZM36.9267 91.1619C37.2628 91.1619 37.5469 91.085 37.7789 90.9311C38.0109 90.7772 38.1873 90.5559 38.3081 90.267C38.4288 89.9782 38.4892 89.6326 38.4892 89.2301C38.4892 88.8371 38.43 88.4903 38.3116 88.1896C38.1932 87.889 38.0181 87.6534 37.786 87.483C37.554 87.3125 37.2676 87.2273 36.9267 87.2273C36.5716 87.2273 36.2756 87.3172 36.0389 87.4972C35.8045 87.6771 35.6281 87.9186 35.5098 88.2216C35.3938 88.5246 35.3358 88.8608 35.3358 89.2301C35.3358 89.6089 35.3949 89.9439 35.5133 90.2351C35.6341 90.5239 35.8116 90.7512 36.046 90.9169C36.2827 91.0803 36.5763 91.1619 36.9267 91.1619ZM11.1392 98.5455V99.2557H8.3125V98.5455H11.1392ZM9.13636 97.2386H9.97443V102.438C9.97443 102.674 10.0088 102.852 10.0774 102.97C10.1484 103.086 10.2384 103.164 10.3473 103.205C10.4586 103.242 10.5758 103.261 10.6989 103.261C10.7912 103.261 10.867 103.257 10.9261 103.247C10.9853 103.235 11.0327 103.226 11.0682 103.219L11.2386 103.972C11.1818 103.993 11.1025 104.014 11.0007 104.036C10.8989 104.059 10.7699 104.071 10.6136 104.071C10.3769 104.071 10.1449 104.02 9.91761 103.918C9.69271 103.817 9.50568 103.661 9.35653 103.453C9.20975 103.245 9.13636 102.982 9.13636 102.665V97.2386ZM13.3551 100.719V104H12.517V96.7273H13.3551V99.3977H13.4261C13.554 99.116 13.7457 98.8923 14.0014 98.7266C14.2595 98.5585 14.6027 98.4744 15.0312 98.4744C15.4029 98.4744 15.7285 98.549 16.0078 98.6982C16.2872 98.8449 16.5038 99.071 16.6577 99.3764C16.8139 99.6795 16.892 100.065 16.892 100.534V104H16.054V100.591C16.054 100.158 15.9415 99.8227 15.7166 99.5859C15.4941 99.3468 15.1851 99.2273 14.7898 99.2273C14.5152 99.2273 14.2689 99.2853 14.0511 99.4013C13.8357 99.5173 13.6652 99.6866 13.5398 99.9091C13.4167 100.132 13.3551 100.402 13.3551 100.719ZM20.7122 104.114C20.1866 104.114 19.7333 103.998 19.3521 103.766C18.9733 103.531 18.6809 103.205 18.475 102.786C18.2714 102.364 18.1696 101.874 18.1696 101.315C18.1696 100.757 18.2714 100.264 18.475 99.8381C18.6809 99.4096 18.9674 99.0758 19.3343 98.8366C19.7037 98.5952 20.1345 98.4744 20.627 98.4744C20.911 98.4744 21.1916 98.5218 21.4686 98.6165C21.7456 98.7112 21.9977 98.8651 22.225 99.0781C22.4522 99.2888 22.6333 99.5682 22.7683 99.9162C22.9032 100.264 22.9707 100.693 22.9707 101.202V101.557H18.7662V100.832H22.1184C22.1184 100.525 22.0569 100.25 21.9338 100.009C21.813 99.767 21.6402 99.5765 21.4153 99.4368C21.1928 99.2971 20.93 99.2273 20.627 99.2273C20.2931 99.2273 20.0043 99.3101 19.7605 99.4759C19.519 99.6392 19.3332 99.8523 19.2029 100.115C19.0727 100.378 19.0076 100.66 19.0076 100.96V101.443C19.0076 101.855 19.0787 102.204 19.2207 102.491C19.3651 102.775 19.5652 102.991 19.8208 103.141C20.0765 103.287 20.3736 103.361 20.7122 103.361C20.9324 103.361 21.1312 103.33 21.3088 103.268C21.4887 103.205 21.6438 103.11 21.774 102.984C21.9042 102.857 22.0048 102.698 22.0758 102.509L22.8855 102.736C22.8002 103.01 22.657 103.252 22.4558 103.46C22.2546 103.666 22.006 103.827 21.71 103.943C21.4141 104.057 21.0815 104.114 20.7122 104.114ZM24.2456 104V98.5455H25.0552V99.3977H25.1262C25.2399 99.1065 25.4234 98.8804 25.6767 98.7195C25.93 98.5561 26.2342 98.4744 26.5893 98.4744C26.9492 98.4744 27.2486 98.5561 27.4877 98.7195C27.7292 98.8804 27.9174 99.1065 28.0524 99.3977H28.1092C28.2489 99.116 28.4584 98.8923 28.7377 98.7266C29.0171 98.5585 29.3521 98.4744 29.7427 98.4744C30.2304 98.4744 30.6293 98.6271 30.9395 98.9325C31.2496 99.2356 31.4047 99.7079 31.4047 100.349V104H30.5666V100.349C30.5666 99.947 30.4565 99.6593 30.2363 99.4865C30.0162 99.3137 29.7569 99.2273 29.4586 99.2273C29.0751 99.2273 28.778 99.3433 28.5673 99.5753C28.3566 99.8049 28.2512 100.096 28.2512 100.449V104H27.399V100.264C27.399 99.9541 27.2984 99.7043 27.0971 99.5149C26.8959 99.3232 26.6367 99.2273 26.3194 99.2273C26.1016 99.2273 25.898 99.2853 25.7086 99.4013C25.5216 99.5173 25.3701 99.6783 25.2541 99.8842C25.1404 100.088 25.0836 100.323 25.0836 100.591V104H24.2456Z" fill="#5A4AC7" fill-opacity="0.8"/>
<line x1="80" y1="160.5" x2="141" y2="160.5" stroke="#ADACAC"/>
<path d="M86.8267 146.114C86.3722 146.114 85.9709 145.999 85.6229 145.769C85.2749 145.537 85.0026 145.21 84.8061 144.789C84.6096 144.365 84.5114 143.865 84.5114 143.287C84.5114 142.714 84.6096 142.217 84.8061 141.795C85.0026 141.374 85.276 141.049 85.6264 140.819C85.9768 140.589 86.3816 140.474 86.8409 140.474C87.196 140.474 87.4766 140.534 87.6825 140.652C87.8909 140.768 88.0495 140.901 88.1584 141.05C88.2696 141.196 88.3561 141.317 88.4176 141.412H88.4886V138.727H89.3267V146H88.517V145.162H88.4176C88.3561 145.261 88.2685 145.387 88.1548 145.538C88.0412 145.687 87.879 145.821 87.6683 145.94C87.4576 146.056 87.1771 146.114 86.8267 146.114ZM86.9403 145.361C87.2765 145.361 87.5606 145.273 87.7926 145.098C88.0246 144.92 88.201 144.675 88.3217 144.363C88.4425 144.048 88.5028 143.685 88.5028 143.273C88.5028 142.866 88.4437 142.509 88.3253 142.204C88.2069 141.896 88.0317 141.657 87.7997 141.487C87.5677 141.314 87.2813 141.227 86.9403 141.227C86.5852 141.227 86.2893 141.318 86.0526 141.501C85.8182 141.681 85.6418 141.926 85.5234 142.236C85.4074 142.544 85.3494 142.889 85.3494 143.273C85.3494 143.661 85.4086 144.014 85.527 144.331C85.6477 144.646 85.8253 144.897 86.0597 145.084C86.2964 145.268 86.59 145.361 86.9403 145.361ZM93.2649 146.114C92.7393 146.114 92.286 145.998 91.9048 145.766C91.526 145.531 91.2337 145.205 91.0277 144.786C90.8241 144.364 90.7223 143.874 90.7223 143.315C90.7223 142.757 90.8241 142.264 91.0277 141.838C91.2337 141.41 91.5201 141.076 91.8871 140.837C92.2564 140.595 92.6873 140.474 93.1797 140.474C93.4638 140.474 93.7443 140.522 94.0213 140.616C94.2983 140.711 94.5504 140.865 94.7777 141.078C95.005 141.289 95.1861 141.568 95.321 141.916C95.456 142.264 95.5234 142.693 95.5234 143.202V143.557H91.3189V142.832H94.6712C94.6712 142.525 94.6096 142.25 94.4865 142.009C94.3658 141.767 94.1929 141.576 93.968 141.437C93.7455 141.297 93.4827 141.227 93.1797 141.227C92.8459 141.227 92.5571 141.31 92.3132 141.476C92.0717 141.639 91.8859 141.852 91.7557 142.115C91.6255 142.378 91.5604 142.66 91.5604 142.96V143.443C91.5604 143.855 91.6314 144.204 91.7734 144.491C91.9179 144.775 92.1179 144.991 92.3736 145.141C92.6293 145.287 92.9264 145.361 93.2649 145.361C93.4851 145.361 93.6839 145.33 93.8615 145.268C94.0414 145.205 94.1965 145.11 94.3267 144.984C94.4569 144.857 94.5575 144.698 94.6286 144.509L95.4382 144.736C95.353 145.01 95.2098 145.252 95.0085 145.46C94.8073 145.666 94.5587 145.827 94.2628 145.943C93.9669 146.057 93.6342 146.114 93.2649 146.114ZM99.2273 140.545V141.256H96.2869V140.545H99.2273ZM97.1676 146V139.793C97.1676 139.48 97.241 139.22 97.3878 139.011C97.5346 138.803 97.7251 138.647 97.9595 138.543C98.1939 138.438 98.4413 138.386 98.7017 138.386C98.9077 138.386 99.0758 138.403 99.206 138.436C99.3362 138.469 99.4332 138.5 99.4972 138.528L99.2557 139.253C99.2131 139.239 99.1539 139.221 99.0781 139.2C99.0047 139.178 98.9077 139.168 98.7869 139.168C98.5099 139.168 98.3099 139.237 98.1868 139.377C98.0661 139.517 98.0057 139.722 98.0057 139.991V146H97.1676ZM100.402 146V140.545H101.24V146H100.402ZM100.828 139.636C100.665 139.636 100.524 139.581 100.405 139.469C100.289 139.358 100.231 139.224 100.231 139.068C100.231 138.912 100.289 138.778 100.405 138.667C100.524 138.556 100.665 138.5 100.828 138.5C100.991 138.5 101.131 138.556 101.247 138.667C101.365 138.778 101.425 138.912 101.425 139.068C101.425 139.224 101.365 139.358 101.247 139.469C101.131 139.581 100.991 139.636 100.828 139.636ZM103.613 142.719V146H102.775V140.545H103.585V141.398H103.656C103.783 141.121 103.978 140.898 104.238 140.73C104.498 140.56 104.835 140.474 105.246 140.474C105.616 140.474 105.939 140.55 106.216 140.702C106.493 140.851 106.708 141.078 106.862 141.384C107.016 141.687 107.093 142.07 107.093 142.534V146H106.255V142.591C106.255 142.162 106.144 141.829 105.921 141.589C105.699 141.348 105.393 141.227 105.005 141.227C104.737 141.227 104.498 141.285 104.288 141.401C104.079 141.517 103.915 141.687 103.794 141.909C103.673 142.132 103.613 142.402 103.613 142.719ZM108.624 146V140.545H109.463V146H108.624ZM109.051 139.636C108.887 139.636 108.746 139.581 108.628 139.469C108.512 139.358 108.454 139.224 108.454 139.068C108.454 138.912 108.512 138.778 108.628 138.667C108.746 138.556 108.887 138.5 109.051 138.5C109.214 138.5 109.354 138.556 109.47 138.667C109.588 138.778 109.647 138.912 109.647 139.068C109.647 139.224 109.588 139.358 109.47 139.469C109.354 139.581 109.214 139.636 109.051 139.636ZM111.836 142.719V146H110.998V140.545H111.807V141.398H111.878C112.006 141.121 112.2 140.898 112.461 140.73C112.721 140.56 113.057 140.474 113.469 140.474C113.838 140.474 114.162 140.55 114.439 140.702C114.716 140.851 114.931 141.078 115.085 141.384C115.239 141.687 115.316 142.07 115.316 142.534V146H114.478V142.591C114.478 142.162 114.366 141.829 114.144 141.589C113.921 141.348 113.616 141.227 113.228 141.227C112.96 141.227 112.721 141.285 112.51 141.401C112.302 141.517 112.137 141.687 112.017 141.909C111.896 142.132 111.836 142.402 111.836 142.719ZM119.049 148.159C118.644 148.159 118.296 148.107 118.005 148.003C117.714 147.901 117.471 147.766 117.277 147.598C117.085 147.432 116.932 147.255 116.819 147.065L117.486 146.597C117.562 146.696 117.658 146.81 117.774 146.938C117.89 147.068 118.049 147.18 118.25 147.275C118.453 147.372 118.72 147.42 119.049 147.42C119.489 147.42 119.853 147.314 120.139 147.101C120.425 146.888 120.569 146.554 120.569 146.099V144.991H120.498C120.436 145.091 120.349 145.214 120.235 145.361C120.124 145.505 119.963 145.634 119.752 145.748C119.544 145.859 119.262 145.915 118.907 145.915C118.466 145.915 118.071 145.811 117.721 145.602C117.373 145.394 117.097 145.091 116.893 144.693C116.692 144.295 116.591 143.812 116.591 143.244C116.591 142.686 116.69 142.199 116.886 141.785C117.083 141.368 117.356 141.046 117.706 140.819C118.057 140.589 118.462 140.474 118.921 140.474C119.276 140.474 119.558 140.534 119.766 140.652C119.977 140.768 120.138 140.901 120.249 141.05C120.363 141.196 120.45 141.317 120.512 141.412H120.597V140.545H121.407V146.156C121.407 146.625 121.3 147.006 121.087 147.3C120.876 147.596 120.592 147.812 120.235 147.95C119.88 148.089 119.484 148.159 119.049 148.159ZM119.02 145.162C119.357 145.162 119.641 145.085 119.873 144.931C120.105 144.777 120.281 144.556 120.402 144.267C120.523 143.978 120.583 143.633 120.583 143.23C120.583 142.837 120.524 142.49 120.405 142.19C120.287 141.889 120.112 141.653 119.88 141.483C119.648 141.312 119.361 141.227 119.02 141.227C118.665 141.227 118.369 141.317 118.133 141.497C117.898 141.677 117.722 141.919 117.604 142.222C117.488 142.525 117.43 142.861 117.43 143.23C117.43 143.609 117.489 143.944 117.607 144.235C117.728 144.524 117.905 144.751 118.14 144.917C118.376 145.08 118.67 145.162 119.02 145.162ZM128.126 140.545V141.256H125.299V140.545H128.126ZM126.123 139.239H126.961V144.438C126.961 144.674 126.995 144.852 127.064 144.97C127.135 145.086 127.225 145.164 127.334 145.205C127.445 145.242 127.562 145.261 127.685 145.261C127.778 145.261 127.853 145.257 127.912 145.247C127.972 145.235 128.019 145.226 128.055 145.219L128.225 145.972C128.168 145.993 128.089 146.014 127.987 146.036C127.885 146.059 127.756 146.071 127.6 146.071C127.363 146.071 127.131 146.02 126.904 145.918C126.679 145.817 126.492 145.661 126.343 145.453C126.196 145.245 126.123 144.982 126.123 144.665V139.239ZM130.341 142.719V146H129.503V138.727H130.341V141.398H130.412C130.54 141.116 130.732 140.892 130.988 140.727C131.246 140.558 131.589 140.474 132.018 140.474C132.389 140.474 132.715 140.549 132.994 140.698C133.273 140.845 133.49 141.071 133.644 141.376C133.8 141.679 133.878 142.065 133.878 142.534V146H133.04V142.591C133.04 142.158 132.928 141.823 132.703 141.586C132.48 141.347 132.171 141.227 131.776 141.227C131.501 141.227 131.255 141.285 131.037 141.401C130.822 141.517 130.652 141.687 130.526 141.909C130.403 142.132 130.341 142.402 130.341 142.719ZM137.699 146.114C137.173 146.114 136.72 145.998 136.338 145.766C135.96 145.531 135.667 145.205 135.461 144.786C135.258 144.364 135.156 143.874 135.156 143.315C135.156 142.757 135.258 142.264 135.461 141.838C135.667 141.41 135.954 141.076 136.321 140.837C136.69 140.595 137.121 140.474 137.613 140.474C137.897 140.474 138.178 140.522 138.455 140.616C138.732 140.711 138.984 140.865 139.211 141.078C139.439 141.289 139.62 141.568 139.755 141.916C139.89 142.264 139.957 142.693 139.957 143.202V143.557H135.752V142.832H139.105C139.105 142.525 139.043 142.25 138.92 142.009C138.799 141.767 138.627 141.576 138.402 141.437C138.179 141.297 137.916 141.227 137.613 141.227C137.279 141.227 136.991 141.31 136.747 141.476C136.505 141.639 136.319 141.852 136.189 142.115C136.059 142.378 135.994 142.66 135.994 142.96V143.443C135.994 143.855 136.065 144.204 136.207 144.491C136.351 144.775 136.551 144.991 136.807 145.141C137.063 145.287 137.36 145.361 137.699 145.361C137.919 145.361 138.118 145.33 138.295 145.268C138.475 145.205 138.63 145.11 138.76 144.984C138.891 144.857 138.991 144.698 139.062 144.509L139.872 144.736C139.787 145.01 139.643 145.252 139.442 145.46C139.241 145.666 138.992 145.827 138.696 145.943C138.4 146.057 138.068 146.114 137.699 146.114ZM87.196 152.545V153.256H84.2557V152.545H87.196ZM85.1364 158V151.793C85.1364 151.48 85.2098 151.22 85.3565 151.011C85.5033 150.803 85.6939 150.647 85.9283 150.543C86.1626 150.438 86.41 150.386 86.6705 150.386C86.8764 150.386 87.0445 150.403 87.1747 150.436C87.3049 150.469 87.402 150.5 87.4659 150.528L87.2244 151.253C87.1818 151.239 87.1226 151.221 87.0469 151.2C86.9735 151.178 86.8764 151.168 86.7557 151.168C86.4787 151.168 86.2786 151.237 86.1555 151.377C86.0348 151.517 85.9744 151.722 85.9744 151.991V158H85.1364ZM88.3706 158V152.545H89.2086V158H88.3706ZM88.7967 151.636C88.6333 151.636 88.4925 151.581 88.3741 151.469C88.2581 151.358 88.2001 151.224 88.2001 151.068C88.2001 150.912 88.2581 150.778 88.3741 150.667C88.4925 150.556 88.6333 150.5 88.7967 150.5C88.96 150.5 89.0997 150.556 89.2157 150.667C89.3341 150.778 89.3933 150.912 89.3933 151.068C89.3933 151.224 89.3341 151.358 89.2157 151.469C89.0997 151.581 88.96 151.636 88.7967 151.636ZM91.5817 154.719V158H90.7436V152.545H91.5533V153.398H91.6243C91.7521 153.121 91.9463 152.898 92.2067 152.73C92.4671 152.56 92.8033 152.474 93.2152 152.474C93.5845 152.474 93.9077 152.55 94.1847 152.702C94.4616 152.851 94.6771 153.078 94.831 153.384C94.9848 153.687 95.0618 154.07 95.0618 154.534V158H94.2237V154.591C94.2237 154.162 94.1125 153.829 93.8899 153.589C93.6674 153.348 93.362 153.227 92.9737 153.227C92.7062 153.227 92.4671 153.285 92.2564 153.401C92.0481 153.517 91.8835 153.687 91.7628 153.909C91.642 154.132 91.5817 154.402 91.5817 154.719ZM98.1983 158.128C97.8527 158.128 97.539 158.063 97.2573 157.933C96.9756 157.8 96.7518 157.609 96.5861 157.361C96.4204 157.11 96.3375 156.807 96.3375 156.452C96.3375 156.139 96.3991 155.886 96.5222 155.692C96.6453 155.495 96.8098 155.341 97.0158 155.23C97.2218 155.119 97.449 155.036 97.6976 154.982C97.9486 154.925 98.2007 154.88 98.454 154.847C98.7855 154.804 99.0542 154.772 99.2601 154.751C99.4685 154.727 99.62 154.688 99.7147 154.634C99.8117 154.579 99.8603 154.484 99.8603 154.349V154.321C99.8603 153.971 99.7644 153.698 99.5726 153.504C99.3832 153.31 99.0956 153.213 98.7097 153.213C98.3096 153.213 97.9959 153.301 97.7686 153.476C97.5414 153.651 97.3816 153.838 97.2892 154.037L96.4938 153.753C96.6358 153.421 96.8252 153.163 97.062 152.979C97.3011 152.792 97.5615 152.661 97.8432 152.588C98.1273 152.512 98.4067 152.474 98.6813 152.474C98.8565 152.474 99.0577 152.496 99.285 152.538C99.5146 152.579 99.736 152.663 99.949 152.79C100.164 152.918 100.343 153.111 100.485 153.369C100.627 153.627 100.698 153.973 100.698 154.406V158H99.8603V157.261H99.8176C99.7608 157.38 99.6661 157.506 99.5336 157.641C99.401 157.776 99.2246 157.891 99.0044 157.986C98.7843 158.08 98.5156 158.128 98.1983 158.128ZM98.3262 157.375C98.6576 157.375 98.937 157.31 99.1642 157.18C99.3939 157.049 99.5667 156.881 99.6827 156.675C99.8011 156.469 99.8603 156.253 99.8603 156.026V155.259C99.8248 155.301 99.7466 155.34 99.6259 155.376C99.5075 155.409 99.3702 155.438 99.214 155.464C99.0601 155.488 98.9097 155.509 98.763 155.528C98.6185 155.545 98.5014 155.559 98.4114 155.571C98.1936 155.599 97.99 155.646 97.8006 155.71C97.6136 155.771 97.4621 155.865 97.3461 155.99C97.2324 156.113 97.1756 156.281 97.1756 156.494C97.1756 156.786 97.2833 157.006 97.4988 157.155C97.7166 157.302 97.9924 157.375 98.3262 157.375ZM103.066 150.727V158H102.228V150.727H103.066ZM109.473 158.114C109.019 158.114 108.617 157.999 108.269 157.769C107.921 157.537 107.649 157.21 107.453 156.789C107.256 156.365 107.158 155.865 107.158 155.287C107.158 154.714 107.256 154.217 107.453 153.795C107.649 153.374 107.923 153.049 108.273 152.819C108.623 152.589 109.028 152.474 109.487 152.474C109.843 152.474 110.123 152.534 110.329 152.652C110.537 152.768 110.696 152.901 110.805 153.05C110.916 153.196 111.003 153.317 111.064 153.412H111.135V150.727H111.973V158H111.164V157.162H111.064C111.003 157.261 110.915 157.387 110.801 157.538C110.688 157.687 110.526 157.821 110.315 157.94C110.104 158.056 109.824 158.114 109.473 158.114ZM109.587 157.361C109.923 157.361 110.207 157.273 110.439 157.098C110.671 156.92 110.847 156.675 110.968 156.363C111.089 156.048 111.149 155.685 111.149 155.273C111.149 154.866 111.09 154.509 110.972 154.204C110.853 153.896 110.678 153.657 110.446 153.487C110.214 153.314 109.928 153.227 109.587 153.227C109.232 153.227 108.936 153.318 108.699 153.501C108.465 153.681 108.288 153.926 108.17 154.236C108.054 154.544 107.996 154.889 107.996 155.273C107.996 155.661 108.055 156.014 108.173 156.331C108.294 156.646 108.472 156.897 108.706 157.084C108.943 157.268 109.236 157.361 109.587 157.361ZM115.911 158.114C115.386 158.114 114.932 157.998 114.551 157.766C114.173 157.531 113.88 157.205 113.674 156.786C113.471 156.364 113.369 155.874 113.369 155.315C113.369 154.757 113.471 154.264 113.674 153.838C113.88 153.41 114.167 153.076 114.534 152.837C114.903 152.595 115.334 152.474 115.826 152.474C116.11 152.474 116.391 152.522 116.668 152.616C116.945 152.711 117.197 152.865 117.424 153.078C117.651 153.289 117.833 153.568 117.968 153.916C118.102 154.264 118.17 154.693 118.17 155.202V155.557H113.965V154.832H117.318C117.318 154.525 117.256 154.25 117.133 154.009C117.012 153.767 116.839 153.576 116.615 153.437C116.392 153.297 116.129 153.227 115.826 153.227C115.492 153.227 115.204 153.31 114.96 153.476C114.718 153.639 114.532 153.852 114.402 154.115C114.272 154.378 114.207 154.66 114.207 154.96V155.443C114.207 155.855 114.278 156.204 114.42 156.491C114.564 156.775 114.764 156.991 115.02 157.141C115.276 157.287 115.573 157.361 115.911 157.361C116.132 157.361 116.33 157.33 116.508 157.268C116.688 157.205 116.843 157.11 116.973 156.984C117.103 156.857 117.204 156.698 117.275 156.509L118.085 156.736C117.999 157.01 117.856 157.252 117.655 157.46C117.454 157.666 117.205 157.827 116.909 157.943C116.613 158.057 116.281 158.114 115.911 158.114ZM123.308 153.767L122.556 153.98C122.508 153.855 122.438 153.733 122.346 153.614C122.256 153.494 122.133 153.394 121.977 153.316C121.82 153.238 121.62 153.199 121.377 153.199C121.043 153.199 120.765 153.276 120.542 153.43C120.322 153.581 120.212 153.774 120.212 154.009C120.212 154.217 120.288 154.381 120.439 154.502C120.591 154.623 120.827 154.723 121.149 154.804L121.959 155.003C122.447 155.121 122.81 155.302 123.049 155.546C123.288 155.788 123.408 156.099 123.408 156.48C123.408 156.793 123.318 157.072 123.138 157.318C122.96 157.564 122.712 157.759 122.392 157.901C122.073 158.043 121.701 158.114 121.277 158.114C120.721 158.114 120.26 157.993 119.896 157.751C119.531 157.51 119.3 157.157 119.203 156.693L119.999 156.494C120.075 156.788 120.218 157.008 120.428 157.155C120.642 157.302 120.92 157.375 121.263 157.375C121.654 157.375 121.964 157.292 122.193 157.126C122.425 156.958 122.541 156.757 122.541 156.523C122.541 156.333 122.475 156.175 122.343 156.047C122.21 155.917 122.006 155.82 121.732 155.756L120.823 155.543C120.323 155.424 119.956 155.241 119.722 154.992C119.49 154.741 119.374 154.428 119.374 154.051C119.374 153.743 119.46 153.471 119.633 153.234C119.808 152.998 120.046 152.812 120.347 152.677C120.65 152.542 120.993 152.474 121.377 152.474C121.916 152.474 122.34 152.593 122.648 152.83C122.958 153.066 123.178 153.379 123.308 153.767ZM124.669 158V152.545H125.507V158H124.669ZM125.096 151.636C124.932 151.636 124.791 151.581 124.673 151.469C124.557 151.358 124.499 151.224 124.499 151.068C124.499 150.912 124.557 150.778 124.673 150.667C124.791 150.556 124.932 150.5 125.096 150.5C125.259 150.5 125.399 150.556 125.515 150.667C125.633 150.778 125.692 150.912 125.692 151.068C125.692 151.224 125.633 151.358 125.515 151.469C125.399 151.581 125.259 151.636 125.096 151.636ZM129.244 160.159C128.839 160.159 128.491 160.107 128.2 160.003C127.909 159.901 127.666 159.766 127.472 159.598C127.28 159.432 127.128 159.255 127.014 159.065L127.682 158.597C127.757 158.696 127.853 158.81 127.969 158.938C128.085 159.068 128.244 159.18 128.445 159.275C128.649 159.372 128.915 159.42 129.244 159.42C129.684 159.42 130.048 159.314 130.334 159.101C130.621 158.888 130.764 158.554 130.764 158.099V156.991H130.693C130.631 157.091 130.544 157.214 130.43 157.361C130.319 157.505 130.158 157.634 129.947 157.748C129.739 157.859 129.457 157.915 129.102 157.915C128.662 157.915 128.266 157.811 127.916 157.602C127.568 157.394 127.292 157.091 127.089 156.693C126.887 156.295 126.787 155.812 126.787 155.244C126.787 154.686 126.885 154.199 127.081 153.785C127.278 153.368 127.551 153.046 127.902 152.819C128.252 152.589 128.657 152.474 129.116 152.474C129.471 152.474 129.753 152.534 129.961 152.652C130.172 152.768 130.333 152.901 130.444 153.05C130.558 153.196 130.646 153.317 130.707 153.412H130.792V152.545H131.602V158.156C131.602 158.625 131.496 159.006 131.282 159.3C131.072 159.596 130.788 159.812 130.43 159.95C130.075 160.089 129.68 160.159 129.244 160.159ZM129.216 157.162C129.552 157.162 129.836 157.085 130.068 156.931C130.3 156.777 130.476 156.556 130.597 156.267C130.718 155.978 130.778 155.633 130.778 155.23C130.778 154.837 130.719 154.49 130.601 154.19C130.482 153.889 130.307 153.653 130.075 153.483C129.843 153.312 129.557 153.227 129.216 153.227C128.861 153.227 128.565 153.317 128.328 153.497C128.094 153.677 127.917 153.919 127.799 154.222C127.683 154.525 127.625 154.861 127.625 155.23C127.625 155.609 127.684 155.944 127.802 156.235C127.923 156.524 128.101 156.751 128.335 156.917C128.572 157.08 128.865 157.162 129.216 157.162ZM133.974 154.719V158H133.136V152.545H133.946V153.398H134.017C134.145 153.121 134.339 152.898 134.599 152.73C134.86 152.56 135.196 152.474 135.608 152.474C135.977 152.474 136.3 152.55 136.577 152.702C136.854 152.851 137.07 153.078 137.224 153.384C137.377 153.687 137.454 154.07 137.454 154.534V158H136.616V154.591C136.616 154.162 136.505 153.829 136.282 153.589C136.06 153.348 135.755 153.227 135.366 153.227C135.099 153.227 134.86 153.285 134.649 153.401C134.441 153.517 134.276 153.687 134.155 153.909C134.035 154.132 133.974 154.402 133.974 154.719Z" fill="#5A4AC7" fill-opacity="0.8"/>
<defs>
<clipPath id="clip0_90_24">
<rect width="16" height="17" fill="white" transform="translate(55 33)"/>
</clipPath>
<clipPath id="clip1_90_24">
<rect width="16" height="17" fill="white" transform="translate(55 151)"/>
</clipPath>
</defs>
</svg>
