<svg width="41" height="204" viewBox="0 0 41 204" fill="none" xmlns="http://www.w3.org/2000/svg">
<path d="M21 203C31.7696 203 40.5 194.941 40.5 185C40.5 175.059 31.7696 167 21 167" stroke="#222233"/>
<line x1="20.5" y1="37" x2="20.5" y2="84" stroke="#222233"/>
<path d="M20.5 84C9.73045 84 1 92.0589 1 102C1 111.941 9.73045 120 20.5 120" stroke="#222233"/>
<line x1="20.5" y1="120" x2="20.5" y2="167" stroke="#222233"/>
<path d="M20.5 37C31.2696 37 40 28.9411 40 19C40 9.05887 31.2696 1 20.5 1" stroke="#222233"/>
<path d="M12.4706 96.4134C12.4706 95.3213 12.7959 94.274 13.3751 93.5018C13.9543 92.7296 14.7398 92.2958 15.5588 92.2958H22.9706C23.7896 92.2958 24.5751 92.7296 25.1543 93.5018C25.7334 94.274 26.0588 95.3213 26.0588 96.4134V99.6087C25.8982 99.7569 25.7451 99.9233 25.6018 100.114L24.8235 101.152V97.2353H13.7059V106.294C13.7059 106.949 13.9011 107.578 14.2486 108.041C14.5961 108.504 15.0674 108.765 15.5588 108.765H19.4413C19.2857 109.176 19.1634 109.613 19.0782 110.066L19.0127 110.412H15.5588C14.7398 110.412 13.9543 109.978 13.3751 109.206C12.7959 108.434 12.4706 107.386 12.4706 106.294V96.4134ZM15.5576 93.9412C15.1742 93.9409 14.8003 94.0992 14.4872 94.3942C14.1742 94.6891 13.9374 95.1063 13.8096 95.5882H24.7173C24.5895 95.1063 24.3528 94.6891 24.0397 94.3942C23.7267 94.0992 23.3527 93.9409 22.9693 93.9412H15.5576ZM23.5734 102.819L20.3641 107.1C20.2564 107.067 20.1573 106.996 20.077 106.895C19.9967 106.794 19.9381 106.666 19.9075 106.525C19.8768 106.384 19.8752 106.234 19.9027 106.091C19.9302 105.949 19.9859 105.818 20.0639 105.714L22.0972 103.003L20.0627 100.291C20.0054 100.214 19.9599 100.123 19.9289 100.023C19.8979 99.9231 19.8819 99.816 19.882 99.7078C19.8821 99.5996 19.8981 99.4924 19.9292 99.3925C19.9603 99.2925 20.0059 99.2018 20.0633 99.1253C20.1207 99.0488 20.1889 98.9882 20.2639 98.9469C20.3389 98.9055 20.4193 98.8843 20.5004 98.8844C20.5816 98.8844 20.6619 98.9058 20.7369 98.9473C20.8118 98.9888 20.8799 99.0495 20.9373 99.1261L23.4079 102.42C23.4904 102.531 23.5478 102.67 23.5734 102.822V102.819ZM18.4655 100.291C18.5245 100.215 18.5715 100.124 18.6039 100.023C18.6362 99.9228 18.6533 99.8147 18.654 99.7054C18.6547 99.596 18.6391 99.4876 18.608 99.3864C18.577 99.2852 18.5311 99.1932 18.4731 99.1159C18.4151 99.0386 18.3462 98.9774 18.2703 98.936C18.1944 98.8946 18.113 98.8738 18.031 98.8747C17.949 98.8757 17.868 98.8984 17.7926 98.9416C17.7172 98.9847 17.6491 99.0475 17.5921 99.1261L15.1215 102.42C15.0057 102.575 14.9407 102.784 14.9407 103.002C14.9407 103.221 15.0057 103.43 15.1215 103.585L17.5921 106.879C17.7086 107.029 17.8646 107.112 18.0266 107.11C18.1885 107.108 18.3434 107.021 18.4579 106.869C18.5725 106.716 18.6374 106.51 18.6388 106.294C18.6402 106.078 18.578 105.87 18.4655 105.714L16.4322 103.002L18.4655 100.291ZM29.2026 101.279C29.0237 101.04 28.8112 100.851 28.5773 100.721C28.3434 100.592 28.0927 100.526 27.8395 100.526C27.5863 100.526 27.3356 100.592 27.1017 100.721C26.8678 100.851 26.6553 101.04 26.4763 101.279L21.1782 108.345C20.7388 108.931 20.4271 109.665 20.2764 110.469L19.9021 112.462C19.8705 112.631 19.8722 112.807 19.9068 112.974C19.9415 113.141 20.008 113.293 20.0999 113.416C20.1918 113.539 20.306 113.628 20.4313 113.674C20.5566 113.721 20.6888 113.723 20.815 113.681L22.3109 113.182C22.914 112.981 23.4648 112.566 23.9045 111.98L29.2026 104.914C29.564 104.432 29.767 103.779 29.767 103.097C29.767 102.416 29.564 101.761 29.2026 101.279Z" fill="#F24E1E"/>
<g clip-path="url(#clip0_143_3)">
<path d="M16 30.4C18.208 30.4 20 28.7275 20 26.6667V22.9333H16C13.792 22.9333 12 24.6059 12 26.6667C12 28.7275 13.792 30.4 16 30.4Z" fill="#0ACF83"/>
<path d="M12 19.2C12 17.1392 13.792 15.4667 16 15.4667H20V22.9333H16C13.792 22.9333 12 21.2608 12 19.2Z" fill="#A259FF"/>
<path d="M12 11.7333C12 9.67253 13.792 8 16 8H20V15.4667H16C13.792 15.4667 12 13.7941 12 11.7333Z" fill="#F24E1E"/>
<path d="M20 8H24C26.208 8 28 9.67253 28 11.7333C28 13.7941 26.208 15.4667 24 15.4667H20V8Z" fill="#FF7262"/>
<path d="M28 19.2C28 21.2608 26.208 22.9333 24 22.9333C21.792 22.9333 20 21.2608 20 19.2C20 17.1392 21.792 15.4667 24 15.4667C26.208 15.4667 28 17.1392 28 19.2Z" fill="#1ABCFE"/>
</g>
<g clip-path="url(#clip1_143_3)">
<path d="M14 196.4C16.208 196.4 18 194.727 18 192.667V188.933H14C11.792 188.933 10 190.606 10 192.667C10 194.727 11.792 196.4 14 196.4Z" fill="#0ACF83"/>
<path d="M10 185.2C10 183.139 11.792 181.467 14 181.467H18V188.933H14C11.792 188.933 10 187.261 10 185.2Z" fill="#A259FF"/>
<path d="M10 177.733C10 175.673 11.792 174 14 174H18V181.467H14C11.792 181.467 10 179.794 10 177.733Z" fill="#F24E1E"/>
<path d="M18 174H22C24.208 174 26 175.673 26 177.733C26 179.794 24.208 181.467 22 181.467H18V174Z" fill="#FF7262"/>
<path d="M26 185.2C26 187.261 24.208 188.933 22 188.933C19.792 188.933 18 187.261 18 185.2C18 183.139 19.792 181.467 22 181.467C24.208 181.467 26 183.139 26 185.2Z" fill="#1ABCFE"/>
</g>
<defs>
<clipPath id="clip0_143_3">
<rect width="16" height="22.4" fill="white" transform="translate(12 8)"/>
</clipPath>
<clipPath id="clip1_143_3">
<rect width="16" height="22.4" fill="white" transform="translate(10 174)"/>
</clipPath>
</defs>
</svg>
